<svg width="24" height="25" viewBox="0 0 24 25" fill="none" xmlns="http://www.w3.org/2000/svg">
    <path d="M12 2C6.21 2 1.5 6.71 1.5 12.5C1.5 18.29 6.21 23 12 23C17.79 23 22.5 18.29 22.5 12.5C22.5 6.71 17.79 2 12 2ZM12 22C6.762 22 2.5 17.738 2.5 12.5C2.5 7.262 6.762 3 12 3C17.238 3 21.5 7.262 21.5 12.5C21.5 17.738 17.238 22 12 22ZM12.75 16C12.75 16.415 12.4159 16.75 12.0039 16.75C11.5929 16.75 11.25 16.415 11.25 16C11.25 15.585 11.577 15.25 11.989 15.25H12.0039C12.4159 15.25 12.75 15.585 12.75 16ZM11.5 12.571V8C11.5 7.724 11.724 7.5 12 7.5C12.276 7.5 12.5 7.724 12.5 8V12.571C12.5 12.847 12.276 13.071 12 13.071C11.724 13.071 11.5 12.848 11.5 12.571Z" fill="#25314C"/>
</svg>
