<svg width="136" height="105" viewBox="0 0 136 105" fill="none" xmlns="http://www.w3.org/2000/svg">
    <g clip-path="url(#clip0_4_127)">
        <path d="M62.5757 28.2928H59.8975V48.3798H62.5757L62.59 28.3213L62.5757 28.2928Z" fill="#606060"/>
        <path d="M65.7597 32.9156L63.7795 34.269L69.6988 43.5504L71.6149 42.0688L65.7597 32.9156Z" fill="#606060"/>
        <path d="M73.011 28.2928L72.9825 48.3798H75.6038V28.2928H73.011Z" fill="#606060"/>
        <path d="M63.0458 71.6935C62.0898 70.0875 61.6151 68.2406 61.6782 66.3726C61.6782 62.5475 63.1028 59.7339 66.3937 59.0287V56.0869C61.5643 56.7992 58.829 60.6243 58.829 66.3441C58.829 71.373 61.1084 75.7537 66.3937 76.4446V73.8233C65.044 73.5737 63.8439 72.8102 63.0458 71.6935Z" fill="#606060"/>
        <path d="M73.0182 61.2868L75.3047 59.677C74.6612 58.5979 73.7575 57.6974 72.6761 57.0578C71.5948 56.4182 70.3703 56.0599 69.1147 56.0157V58.9219C69.9116 58.9568 70.6868 59.1916 71.369 59.6049C72.0512 60.0182 72.6184 60.5966 73.0182 61.2868Z" fill="#606060"/>
        <path d="M73.5666 70.6749C73.3463 71.1857 73.0588 71.6648 72.7118 72.0996C71.7916 73.1508 70.4996 73.8044 69.1075 73.9231V76.4874C70.3554 76.4096 71.5691 76.0484 72.6565 75.4313C73.7439 74.8141 74.6763 73.9573 75.383 72.9258C75.5468 72.6694 75.6892 72.4272 75.8103 72.2135L73.5666 70.6749Z" fill="#606060"/>
        <path d="M69.478 0H66.6858V20.4076H69.478V0Z" fill="#606060"/>
        <path d="M0.00683594 101.952V93.312H1.11803V101.952H0.00683594Z" fill="#333333"/>
        <path d="M9.45203 101.952L5.17819 95.0073V101.952H4.1311V93.312H5.34915L9.62298 100.285V93.312H10.6701V101.952H9.45203Z" fill="#333333"/>
        <path d="M18.883 101.197C18.2547 101.792 17.4224 102.123 16.5573 102.123C15.6922 102.123 14.86 101.792 14.2316 101.197C13.2914 100.285 13.1489 99.0176 13.1489 97.6357C13.1489 96.2538 13.2985 94.9931 14.2316 94.0742C14.8602 93.4732 15.6984 93.141 16.568 93.1482C17.4212 93.1362 18.2459 93.4553 18.8687 94.0386C19.3912 94.5657 19.6964 95.27 19.7235 96.0117H18.6052C18.5953 95.5641 18.4261 95.1347 18.1279 94.8007C17.926 94.5929 17.683 94.4292 17.4145 94.3201C17.146 94.2109 16.8577 94.1588 16.568 94.1668C16.2751 94.1654 15.985 94.2227 15.7146 94.3353C15.4443 94.4478 15.1992 94.6133 14.9938 94.8221C14.2815 95.5344 14.2815 96.724 14.2815 97.6215C14.2815 98.519 14.2815 99.6943 14.9938 100.428C15.1992 100.637 15.4443 100.802 15.7146 100.915C15.985 101.027 16.2751 101.085 16.568 101.083C16.8613 101.088 17.1525 101.032 17.4233 100.919C17.6941 100.807 17.9388 100.639 18.1422 100.428C18.4407 100.08 18.6094 99.6396 18.6194 99.1814H19.7378C19.7171 99.9371 19.4118 100.657 18.883 101.197Z" fill="#333333"/>
        <path d="M31.1203 101.162C30.5406 101.697 29.7723 101.982 28.9834 101.952H25.5002V93.312H28.9478C29.3389 93.2927 29.7299 93.3527 30.0972 93.4886C30.4645 93.6245 30.8004 93.8334 31.0847 94.1027C31.4518 94.4854 31.6539 94.997 31.6474 95.5273C31.6638 95.9355 31.5534 96.3388 31.3315 96.6818C31.1096 97.0249 30.787 97.2909 30.408 97.4434C30.8353 97.5942 31.2037 97.877 31.4597 98.2509C31.7158 98.6248 31.8464 99.0704 31.8326 99.5233C31.8295 99.8302 31.7649 100.133 31.6426 100.415C31.5202 100.696 31.3426 100.95 31.1203 101.162ZM28.9122 94.2808H26.526V97.0018H28.9478C29.8524 97.0018 30.4721 96.5958 30.4721 95.6341C30.4615 95.4424 30.4122 95.2548 30.3273 95.0826C30.2423 94.9104 30.1234 94.7571 29.9777 94.632C29.8319 94.5069 29.6624 94.4126 29.4793 94.3547C29.2962 94.2968 29.1033 94.2765 28.9122 94.295V94.2808ZM28.9763 97.9491H26.526V100.955H28.9478C29.8952 100.955 30.6645 100.492 30.6645 99.4663C30.6614 99.2529 30.6143 99.0424 30.5262 98.848C30.4381 98.6536 30.3109 98.4794 30.1525 98.3364C29.9941 98.1934 29.8078 98.0845 29.6055 98.0167C29.4031 97.9488 29.1889 97.9234 28.9763 97.942V97.9491Z" fill="#333333"/>
        <path d="M36.1065 103.22C36.0241 103.599 35.8129 103.937 35.509 104.177C35.205 104.418 34.8271 104.545 34.4397 104.538C34.1221 104.542 33.8055 104.502 33.4994 104.417V103.519C33.7317 103.583 33.9711 103.616 34.2118 103.619C34.414 103.639 34.617 103.588 34.7859 103.475C34.9549 103.362 35.0793 103.194 35.1378 102.999L35.5295 101.967L33.0649 95.798H34.2331L36.0495 100.663L37.7804 95.798H38.8631L36.1065 103.22Z" fill="#333333"/>
        <path d="M45.3665 104.111C44.6535 104.646 43.7686 104.899 42.8805 104.823C42.0389 104.897 41.2013 104.642 40.5442 104.111C40.3995 103.968 40.2857 103.796 40.2098 103.608C40.1338 103.419 40.0973 103.217 40.1025 103.014C40.104 102.726 40.1871 102.445 40.3422 102.203C40.4973 101.961 40.718 101.768 40.9787 101.646C40.7697 101.566 40.5899 101.424 40.4628 101.24C40.3357 101.055 40.2672 100.837 40.2664 100.613C40.2727 100.356 40.3535 100.106 40.4988 99.8936C40.6442 99.6812 40.848 99.5155 41.0855 99.4165C40.8632 99.2141 40.6851 98.9678 40.5625 98.6932C40.4399 98.4186 40.3755 98.1216 40.3732 97.8209C40.3632 97.5439 40.4098 97.2676 40.5102 97.0092C40.6107 96.7508 40.7628 96.5155 40.9573 96.318C41.1955 96.0776 41.4816 95.89 41.7969 95.7673C42.1123 95.6445 42.4499 95.5895 42.7879 95.6057C43.2878 95.588 43.7822 95.7141 44.2125 95.9689C44.3057 95.7097 44.4786 95.4867 44.7064 95.3319C44.9342 95.177 45.2051 95.0983 45.4804 95.1071C45.5825 95.1016 45.6847 95.1016 45.7867 95.1071V95.9476C45.7085 95.9405 45.6299 95.9405 45.5517 95.9476C45.3789 95.9334 45.2069 95.9828 45.0679 96.0864C44.9289 96.19 44.8325 96.3407 44.7966 96.5103C45.0749 96.8782 45.2159 97.3316 45.1955 97.7924C45.1987 98.337 44.998 98.863 44.6328 99.2669C44.3935 99.5078 44.1063 99.6958 43.7897 99.8185C43.4731 99.9412 43.1342 99.996 42.7951 99.9792C42.4429 99.9898 42.0921 99.9317 41.7622 99.8083C41.6315 99.8405 41.5126 99.9092 41.4193 100.006C41.326 100.103 41.2621 100.225 41.2351 100.357C41.1995 100.891 41.7693 100.955 42.1611 100.962C42.5529 100.969 43.3792 100.962 43.3792 100.962C44.1166 100.906 44.8471 101.138 45.4163 101.61C45.5738 101.768 45.6978 101.956 45.781 102.163C45.8642 102.37 45.905 102.591 45.9007 102.814C45.9075 103.056 45.8634 103.296 45.7714 103.519C45.6793 103.742 45.5414 103.944 45.3665 104.111ZM42.9446 101.895H41.8192C41.6039 101.956 41.4131 102.083 41.2738 102.258C41.1345 102.433 41.0537 102.648 41.0428 102.871C41.0389 102.991 41.0596 103.11 41.1037 103.222C41.1479 103.333 41.2144 103.435 41.2992 103.519C41.7755 103.862 42.3621 104.014 42.9446 103.947C43.5396 104.003 44.1351 103.846 44.6257 103.505C44.7094 103.423 44.7754 103.324 44.8195 103.215C44.8636 103.106 44.8849 102.989 44.8821 102.871C44.8821 101.817 43.721 101.888 42.9446 101.888V101.895ZM42.7737 96.4747C42.5863 96.4611 42.398 96.4863 42.2208 96.5488C42.0436 96.6112 41.8811 96.7094 41.7435 96.8374C41.6059 96.9654 41.4962 97.1204 41.4212 97.2926C41.3461 97.4649 41.3074 97.6508 41.3074 97.8387C41.3074 98.0266 41.3461 98.2125 41.4212 98.3848C41.4962 98.5571 41.6059 98.7121 41.7435 98.84C41.8811 98.968 42.0436 99.0663 42.2208 99.1287C42.398 99.1911 42.5863 99.2164 42.7737 99.2028C42.9596 99.2148 43.146 99.1878 43.321 99.1236C43.4959 99.0594 43.6555 98.9594 43.7896 98.8301C43.9237 98.7007 44.0293 98.5447 44.0997 98.3722C44.17 98.1996 44.2036 98.0143 44.1983 97.828C44.2085 97.6411 44.1781 97.4543 44.1092 97.2802C44.0403 97.1062 43.9345 96.9491 43.7992 96.8198C43.6638 96.6906 43.502 96.5922 43.325 96.5313C43.148 96.4705 42.9599 96.4487 42.7737 96.4675V96.4747Z" fill="#333333"/>
        <path d="M52.5607 104.111C51.8478 104.646 50.9628 104.899 50.0747 104.823C49.2331 104.897 48.3955 104.642 47.7384 104.111C47.5937 103.968 47.4799 103.796 47.404 103.608C47.328 103.419 47.2915 103.217 47.2968 103.014C47.2982 102.726 47.3813 102.445 47.5364 102.203C47.6915 101.961 47.9122 101.768 48.1729 101.646C47.9639 101.566 47.7841 101.424 47.657 101.24C47.5299 101.055 47.4614 100.837 47.4606 100.613C47.4669 100.356 47.5476 100.106 47.693 99.8936C47.8384 99.6812 48.0422 99.5155 48.2797 99.4165C48.0573 99.2141 47.8793 98.9678 47.7567 98.6932C47.6341 98.4186 47.5697 98.1216 47.5674 97.8209C47.5574 97.5439 47.604 97.2676 47.7044 97.0092C47.8049 96.7508 47.957 96.5155 48.1515 96.318C48.3897 96.0776 48.6757 95.89 48.9911 95.7673C49.3065 95.6445 49.6441 95.5895 49.9821 95.6057C50.4819 95.5884 50.9763 95.7144 51.4068 95.9689C51.4999 95.7097 51.6728 95.4867 51.9006 95.3319C52.1284 95.177 52.3994 95.0983 52.6747 95.1071C52.7767 95.1015 52.8789 95.1015 52.9809 95.1071V95.9476C52.9051 95.9408 52.8288 95.9408 52.753 95.9476C52.5802 95.9334 52.4082 95.9828 52.2692 96.0864C52.1302 96.19 52.0338 96.3407 51.998 96.5103C52.2777 96.9004 52.4067 97.3786 52.3612 97.8565C52.3644 98.4011 52.1637 98.9271 51.7985 99.331C51.5592 99.5719 51.272 99.7599 50.9554 99.8826C50.6388 100.005 50.2999 100.06 49.9608 100.043C49.6087 100.054 49.2579 99.9957 48.9279 99.8724C48.7985 99.9058 48.6812 99.975 48.5892 100.072C48.4972 100.169 48.4344 100.29 48.408 100.421C48.3723 100.955 48.9422 101.019 49.3339 101.026C49.7257 101.033 50.552 101.026 50.552 101.026C51.2894 100.97 52.02 101.202 52.5892 101.674C52.8985 101.985 53.0726 102.405 53.0735 102.843C53.0791 103.078 53.0364 103.312 52.9482 103.53C52.86 103.748 52.7281 103.945 52.5607 104.111ZM50.1388 101.895H49.0134C48.7968 101.955 48.6045 102.081 48.4638 102.257C48.3231 102.432 48.2413 102.647 48.2299 102.871C48.2256 102.991 48.2461 103.111 48.2902 103.222C48.3344 103.334 48.4011 103.435 48.4863 103.519C48.9622 103.862 49.5491 104.015 50.1317 103.947C50.7266 104.003 51.3222 103.846 51.8128 103.505C51.8965 103.423 51.9624 103.324 52.0065 103.215C52.0506 103.106 52.072 102.989 52.0692 102.871C52.0692 101.817 50.9366 101.888 50.1317 101.888L50.1388 101.895ZM49.9679 96.4747C49.7805 96.4611 49.5923 96.4863 49.415 96.5488C49.2378 96.6112 49.0753 96.7094 48.9377 96.8374C48.8001 96.9654 48.6904 97.1204 48.6154 97.2926C48.5403 97.4649 48.5016 97.6508 48.5016 97.8387C48.5016 98.0267 48.5403 98.2125 48.6154 98.3848C48.6904 98.5571 48.8001 98.7121 48.9377 98.8401C49.0753 98.968 49.2378 99.0663 49.415 99.1287C49.5923 99.1911 49.7805 99.2164 49.9679 99.2028C50.1539 99.2148 50.3402 99.1878 50.5152 99.1236C50.6901 99.0594 50.8497 98.9594 50.9838 98.8301C51.1179 98.7007 51.2235 98.5447 51.2939 98.3722C51.3643 98.1996 51.3979 98.0143 51.3925 97.828C51.4016 97.6408 51.3702 97.4538 51.3005 97.2798C51.2308 97.1057 51.1244 96.9488 50.9884 96.8197C50.8525 96.6905 50.6904 96.5922 50.513 96.5314C50.3357 96.4707 50.1473 96.4489 49.9608 96.4675L49.9679 96.4747Z" fill="#333333"/>
        <path d="M58.9573 101.952V98.0417C58.9573 97.1157 58.5797 96.5673 57.6039 96.5673C57.3123 96.5799 57.0307 96.6768 56.793 96.8462C56.5553 97.0156 56.3719 97.2502 56.2648 97.5217C56.088 98.0268 56.0129 98.5618 56.044 99.0959V101.945H55.0111V95.7766H55.9229L56.0083 96.7026C56.1913 96.3692 56.4618 96.0922 56.7907 95.9014C57.1196 95.7106 57.4944 95.6132 57.8746 95.6199C59.2992 95.6199 60.0115 96.4604 60.0115 97.885V101.945H58.9787L58.9573 101.952Z" fill="#333333"/>
        <path d="M67.227 102.038C67.1052 102.04 66.9842 102.017 66.8718 101.97C66.7594 101.923 66.6581 101.853 66.5743 101.764C66.4905 101.676 66.4261 101.571 66.3852 101.456C66.3442 101.341 66.3277 101.219 66.3367 101.098C66.1231 101.432 65.8246 101.704 65.4718 101.885C65.1189 102.067 64.7242 102.151 64.328 102.13C64.06 102.159 63.7891 102.132 63.5324 102.049C63.2758 101.967 63.0393 101.832 62.838 101.653C62.6367 101.474 62.4751 101.255 62.3637 101.009C62.2523 100.764 62.1935 100.498 62.191 100.228C62.191 99.4378 62.7039 98.3979 64.385 98.3053L66.2583 98.1984V97.7497C66.2749 97.5797 66.2556 97.4082 66.2016 97.2462C66.1476 97.0843 66.0601 96.9354 65.9449 96.8094C65.6616 96.5763 65.2993 96.4615 64.9334 96.4889C64.7322 96.4724 64.5298 96.496 64.3378 96.5584C64.1459 96.6207 63.9682 96.7206 63.8151 96.8522C63.7197 96.9449 63.6436 97.0556 63.591 97.1778C63.5384 97.3 63.5105 97.4314 63.5088 97.5645H62.4973C62.4974 97.0809 62.6896 96.6171 63.0316 96.2752C63.5547 95.8153 64.238 95.5798 64.9334 95.6199C65.3678 95.575 65.8054 95.6644 66.1875 95.8758C66.5695 96.0872 66.8776 96.4105 67.0703 96.8023C67.1965 97.102 67.2596 97.4245 67.2555 97.7497V100.734C67.2555 101.062 67.3909 101.147 67.5975 101.147C67.6886 101.144 67.7792 101.132 67.8681 101.112V101.881C67.6696 101.983 67.4501 102.036 67.227 102.038ZM66.2797 98.982L64.62 99.0817C64.458 99.065 64.2944 99.0805 64.1384 99.1275C63.9825 99.1744 63.8374 99.2518 63.7116 99.3551C63.5858 99.4584 63.4816 99.5857 63.4053 99.7295C63.3289 99.8733 63.2818 100.031 63.2666 100.193C63.2637 100.347 63.2946 100.5 63.357 100.64C63.4195 100.781 63.512 100.906 63.6281 101.008C63.7442 101.109 63.8811 101.183 64.029 101.226C64.177 101.269 64.3325 101.278 64.4847 101.254C64.7187 101.261 64.9516 101.22 65.1695 101.134C65.3874 101.049 65.5857 100.92 65.7526 100.756C66.1093 100.369 66.2988 99.8568 66.2797 99.331V98.9677V98.982Z" fill="#333333"/>
        <path d="M74.2362 101.952L74.165 101.147C73.9662 101.458 73.6905 101.711 73.3647 101.883C73.039 102.056 72.6742 102.141 72.3059 102.13C71.9846 102.144 71.6639 102.092 71.3637 101.977C71.0634 101.862 70.7901 101.686 70.5607 101.461C69.9751 100.72 69.6608 99.8002 69.6699 98.8556C69.6789 97.911 70.0109 96.998 70.6106 96.2681C71.0747 95.8508 71.682 95.6288 72.3059 95.6484C72.6538 95.6372 72.9992 95.7111 73.3121 95.8638C73.6249 96.0165 73.8957 96.2433 74.1009 96.5245V93.1553H75.1551V101.952H74.2434H74.2362ZM73.5239 96.9092C73.2563 96.6512 72.8984 96.508 72.5267 96.5103C71.1519 96.5103 70.7815 97.7426 70.7815 98.8751C70.7815 100.008 71.1448 101.24 72.5267 101.24C72.8984 101.242 73.2563 101.099 73.5239 100.841C73.9636 100.279 74.2002 99.584 74.195 98.8702C74.1898 98.1563 73.9433 97.4651 73.4954 96.9092H73.5239Z" fill="#333333"/>
        <path d="M82.1072 101.418C81.5362 101.869 80.8297 102.115 80.102 102.115C79.3743 102.115 78.6678 101.869 78.0969 101.418C77.9071 101.233 77.7563 101.011 77.6536 100.766C77.5508 100.522 77.4981 100.259 77.4985 99.9935H78.5314C78.5336 100.182 78.5798 100.367 78.6664 100.534C78.753 100.701 78.8775 100.845 79.03 100.955C79.3643 101.157 79.7513 101.253 80.1412 101.233C80.5478 101.261 80.9507 101.14 81.2737 100.891C81.3703 100.808 81.4478 100.706 81.5006 100.59C81.5535 100.474 81.5806 100.349 81.58 100.221C81.5671 99.9783 81.459 99.75 81.279 99.586C81.099 99.422 80.8617 99.3355 80.6184 99.3452L79.1938 99.16C78.775 99.1361 78.3822 98.9489 78.0999 98.6386C77.8175 98.3283 77.6681 97.9196 77.6837 97.5004C77.695 97.0484 77.8785 96.6178 78.1966 96.2966C78.4364 96.0625 78.7207 95.8789 79.0327 95.7565C79.3446 95.6342 79.678 95.5756 80.013 95.5843C80.3767 95.5593 80.7414 95.6161 81.0804 95.7505C81.4193 95.8848 81.7239 96.0933 81.9718 96.3607C82.2602 96.6866 82.4175 97.1079 82.4134 97.5431H81.3806C81.3674 97.2499 81.2395 96.9736 81.0244 96.7738C80.7422 96.5382 80.3798 96.4208 80.013 96.4462C79.7694 96.4318 79.5258 96.4732 79.3007 96.5673C79.127 96.6279 78.9753 96.7388 78.8649 96.886C78.7545 97.0331 78.6905 97.2098 78.681 97.3935C78.6778 97.5019 78.6972 97.6097 78.7379 97.7102C78.7786 97.8107 78.8398 97.9017 78.9174 97.9774C78.9951 98.053 79.0876 98.1117 79.1891 98.1498C79.2907 98.1878 79.399 98.2044 79.5072 98.1984C79.8491 98.2483 80.3335 98.2982 80.996 98.405C81.3347 98.428 81.6595 98.5485 81.9312 98.7519C82.203 98.9554 82.4101 99.2331 82.5275 99.5516C82.645 99.8701 82.6678 100.216 82.5932 100.547C82.5186 100.878 82.3498 101.181 82.1072 101.418Z" fill="#333333"/>
        <path d="M87.1717 93.9103C87.0571 93.9 86.9416 93.9144 86.8331 93.9525C86.7245 93.9906 86.6253 94.0515 86.5423 94.1312C86.4593 94.2108 86.3943 94.3074 86.3517 94.4143C86.3092 94.5212 86.29 94.636 86.2956 94.7509V95.7837H88.0763V96.6599H86.2956V101.952H85.2627V96.6599H84.1444V95.7837H85.2627V94.6868C85.2631 94.4579 85.3106 94.2316 85.4023 94.0219C85.4939 93.8122 85.6278 93.6236 85.7955 93.4679C85.9633 93.3122 86.1613 93.1927 86.3772 93.1169C86.5931 93.041 86.8224 93.0105 87.0506 93.0271C87.4353 93.0282 87.8191 93.064 88.1974 93.1339V93.9958C87.8579 93.944 87.5152 93.9154 87.1717 93.9103Z" fill="#333333"/>
        <path d="M89.9211 94.3733V93.1553H91.1249V94.3733H89.9211ZM89.9924 101.952V95.7837H91.0537V101.952H89.9924Z" fill="#333333"/>
        <path d="M96.688 96.7525C96.2507 96.7572 95.8322 96.9307 95.5198 97.2368C95.0854 97.7976 94.8838 98.5043 94.9571 99.2099V101.952H93.9314V95.7837H94.8432L94.9286 96.8664C95.0871 96.5169 95.3472 96.2232 95.675 96.0238C96.0028 95.8243 96.3831 95.7282 96.7664 95.7481C96.9309 95.7481 97.0951 95.76 97.2579 95.7837V96.7952C97.0697 96.763 96.8789 96.7487 96.688 96.7525Z" fill="#333333"/>
        <path d="M106.774 101.952V98.0275C106.774 97.1656 106.497 96.5673 105.521 96.5673C105.344 96.5654 105.168 96.6013 105.006 96.6725C104.844 96.7437 104.699 96.8487 104.58 96.9804C104.191 97.4552 104.001 98.0635 104.053 98.6757V101.952H103.02V98.0275C103.02 97.1656 102.764 96.5673 101.774 96.5673C101.569 96.5703 101.367 96.6215 101.185 96.7168C101.003 96.812 100.846 96.9487 100.727 97.1157C100.435 97.5822 100.291 98.1259 100.314 98.6757V101.952H99.2809V95.7837H100.186L100.285 96.6599C100.446 96.3412 100.694 96.0748 101.001 95.8919C101.307 95.709 101.659 95.6172 102.016 95.627C102.408 95.5922 102.801 95.6878 103.133 95.899C103.466 96.1103 103.719 96.4253 103.854 96.7952C104.022 96.436 104.292 96.1339 104.63 95.9263C104.968 95.7187 105.359 95.6146 105.756 95.627C107.18 95.627 107.814 96.5245 107.814 97.8921V101.952H106.781H106.774Z" fill="#333333"/>
        <path d="M115.044 102.038C114.922 102.04 114.801 102.017 114.689 101.97C114.576 101.923 114.475 101.853 114.391 101.764C114.308 101.676 114.243 101.571 114.202 101.456C114.161 101.341 114.145 101.219 114.154 101.098C113.944 101.424 113.654 101.691 113.311 101.872C112.967 102.053 112.583 102.142 112.195 102.13C111.927 102.159 111.656 102.132 111.399 102.049C111.143 101.967 110.906 101.832 110.705 101.653C110.504 101.474 110.342 101.255 110.231 101.009C110.119 100.764 110.06 100.498 110.058 100.228C110.058 99.4378 110.571 98.3979 112.252 98.3053L114.125 98.1984V97.7497C114.141 97.5792 114.12 97.4074 114.065 97.2454C114.01 97.0834 113.921 96.9348 113.805 96.8094C113.521 96.5763 113.159 96.4615 112.793 96.4889C112.592 96.4724 112.39 96.496 112.198 96.5584C112.006 96.6207 111.828 96.7206 111.675 96.8522C111.58 96.9449 111.503 97.0556 111.451 97.1778C111.398 97.3 111.37 97.4314 111.369 97.5645H110.357C110.357 97.0809 110.549 96.6171 110.891 96.2752C111.415 95.8153 112.098 95.5798 112.793 95.6199C113.228 95.575 113.665 95.6644 114.047 95.8758C114.429 96.0872 114.737 96.4105 114.93 96.8023C115.056 97.1021 115.119 97.4246 115.115 97.7497V100.734C115.115 101.062 115.251 101.147 115.457 101.147C115.548 101.144 115.639 101.132 115.728 101.112V101.881C115.517 101.989 115.282 102.043 115.044 102.038ZM114.097 98.982L112.437 99.0817C112.275 99.065 112.111 99.0805 111.956 99.1275C111.8 99.1744 111.655 99.2518 111.529 99.3551C111.403 99.4584 111.299 99.5857 111.222 99.7295C111.146 99.8733 111.099 100.031 111.084 100.193C111.081 100.347 111.112 100.5 111.174 100.64C111.237 100.781 111.329 100.906 111.445 101.008C111.561 101.109 111.698 101.183 111.846 101.226C111.994 101.269 112.15 101.278 112.302 101.254C112.536 101.261 112.769 101.22 112.987 101.134C113.204 101.049 113.403 100.92 113.57 100.756C113.926 100.369 114.116 99.8568 114.097 99.331V98.9677V98.982Z" fill="#333333"/>
        <path d="M126.641 101.952L125.928 99.908H122.167L121.455 101.959H120.386L123.435 93.3192H124.703L127.759 101.959H126.641V101.952ZM124.048 94.3947L122.523 98.8823H125.579L124.048 94.3947Z" fill="#333333"/>
        <path d="M135.338 101.162C134.758 101.697 133.99 101.982 133.201 101.952H129.718V93.312H133.165C133.556 93.2927 133.947 93.3527 134.315 93.4886C134.682 93.6245 135.018 93.8334 135.302 94.1027C135.669 94.4854 135.871 94.997 135.865 95.5273C135.881 95.9364 135.769 96.3402 135.546 96.6834C135.323 97.0265 134.999 97.292 134.618 97.4434C135.043 97.5989 135.408 97.8828 135.663 98.2556C135.919 98.6284 136.051 99.0715 136.043 99.5233C136.04 99.8296 135.977 100.132 135.856 100.414C135.734 100.695 135.558 100.949 135.338 101.162ZM133.137 94.295H130.715V97.016H133.137C134.041 97.016 134.661 96.61 134.661 95.6484C134.652 95.4587 134.605 95.2727 134.523 95.1013C134.441 94.93 134.326 94.7768 134.184 94.6507C134.042 94.5246 133.876 94.4282 133.696 94.3671C133.516 94.306 133.326 94.2815 133.137 94.295ZM133.201 97.9634H130.715V100.969H133.137C134.084 100.969 134.853 100.506 134.853 99.4806C134.852 99.2686 134.807 99.0591 134.722 98.865C134.636 98.671 134.512 98.4965 134.356 98.3524C134.201 98.2082 134.017 98.0974 133.817 98.0269C133.618 97.9563 133.405 97.9274 133.194 97.942L133.201 97.9634Z" fill="#333333"/>
    </g>
    <defs>
        <clipPath id="clip0_4_127">
            <rect width="135.986" height="104.83" fill="white" transform="translate(0.00683594)"/>
        </clipPath>
    </defs>
</svg>
